<?xml version="1.0" standalone="no"?>
<!DOCTYPE svg PUBLIC "-//W3C//DTD SVG 20010904//EN"
 "http://www.w3.org/TR/2001/REC-SVG-20010904/DTD/svg10.dtd">
<svg version="1.0" xmlns="http://www.w3.org/2000/svg"
 width="2700.000000pt" height="2700.000000pt" viewBox="0 0 2700.000000 2700.000000"
 preserveAspectRatio="xMidYMid meet">

<g transform="translate(0.000000,2700.000000) scale(0.100000,-0.100000)"
fill="#000000" stroke="none">
<path d="M13565 17243 c-534 -66 -990 -291 -1350 -664 -533 -553 -734 -1330
-540 -2084 138 -537 463 -995 920 -1298 126 -84 363 -198 511 -246 561 -184
1182 -136 1701 130 970 499 1426 1632 1077 2679 -263 790 -951 1359 -1782
1474 -103 15 -447 20 -537 9z m416 -293 c805 -82 1478 -657 1679 -1435 271
-1051 -403 -2111 -1490 -2343 -116 -24 -143 -26 -370 -26 -229 -1 -253 1 -370
26 -510 110 -937 398 -1225 828 -125 187 -238 459 -284 685 -107 528 18 1068
351 1508 80 106 260 286 366 366 395 299 874 438 1343 391z"/>
<path d="M14102 16672 c-12 -2 -30 -15 -40 -30 -15 -24 -17 -75 -20 -580 l-3
-554 -42 6 c-188 30 -276 29 -380 -5 -143 -48 -232 -148 -285 -322 -13 -44
-16 -139 -19 -624 -2 -315 -6 -573 -9 -573 -13 0 -139 69 -209 115 -158 102
-287 234 -382 391 -100 164 -167 381 -198 639 -9 71 -18 131 -20 133 -7 8 -56
-99 -85 -188 -78 -232 -80 -543 -5 -767 153 -455 610 -845 1030 -879 62 -6 73
-4 98 16 l27 21 0 555 0 554 31 0 c16 0 73 -5 124 -12 244 -30 432 56 516 236
56 121 59 149 59 754 l0 553 101 -52 c419 -215 637 -567 703 -1134 l13 -110
41 85 c68 138 93 255 99 455 6 190 -6 278 -57 440 -103 319 -356 607 -665 755
-141 67 -362 131 -423 122z"/>
<path d="M3850 12142 c-22 -11 -44 -35 -58 -63 l-22 -44 2 -745 c3 -830 -1
-776 71 -820 30 -18 52 -20 297 -20 307 0 374 11 520 82 111 55 237 178 292
283 79 154 103 271 102 495 -1 186 -11 256 -57 383 -57 158 -180 300 -322 374
-152 79 -192 86 -510 90 -259 4 -283 3 -315 -15z m652 -325 c130 -64 212 -174
245 -330 22 -106 14 -339 -16 -429 -31 -95 -94 -183 -166 -233 -96 -65 -146
-78 -332 -83 l-163 -4 0 562 0 562 178 -4 178 -3 76 -38z"/>
<path d="M5471 12143 c-19 -10 -44 -31 -55 -46 -21 -28 -21 -42 -26 -615 -5
-630 -4 -619 -58 -675 -38 -40 -72 -56 -139 -63 -32 -4 -70 -13 -85 -20 -64
-33 -89 -142 -48 -209 27 -44 75 -65 147 -65 175 0 344 103 418 254 59 121 58
111 62 741 4 642 4 641 -59 686 -42 30 -113 35 -157 12z"/>
<path d="M6601 12142 c-19 -9 -44 -30 -55 -45 -21 -28 -21 -38 -24 -780 -2
-839 -6 -796 67 -844 34 -23 36 -23 400 -23 345 0 368 1 398 20 88 53 88 197
0 250 -30 18 -52 20 -299 20 l-268 0 0 648 0 648 -22 44 c-38 74 -123 101
-197 62z"/>
<path d="M7624 12146 c-17 -8 -42 -29 -55 -47 l-24 -34 0 -530 c0 -603 1 -616
80 -773 97 -193 259 -298 480 -309 135 -7 227 9 326 59 181 90 291 266 319
510 7 58 10 270 8 563 -3 449 -4 472 -23 504 -24 41 -77 71 -125 71 -48 0
-101 -30 -125 -71 -19 -33 -20 -57 -25 -559 -5 -519 -5 -526 -28 -582 -29 -72
-98 -150 -160 -179 -63 -31 -176 -32 -243 -2 -95 43 -168 152 -188 283 -7 38
-11 261 -11 539 0 457 -1 475 -20 506 -36 58 -118 81 -186 51z"/>
<path d="M9658 12150 c-401 -73 -689 -393 -715 -791 -26 -409 237 -775 637
-886 102 -28 339 -25 445 5 103 30 203 80 228 114 30 40 34 124 8 165 -47 75
-116 89 -217 45 -102 -45 -149 -55 -249 -56 -305 -1 -556 249 -557 554 0 157
52 283 166 396 114 114 233 164 390 164 100 0 166 -14 250 -54 65 -31 119 -33
164 -6 68 42 91 129 54 200 -24 44 -107 90 -227 125 -99 29 -288 42 -377 25z"/>
<path d="M11112 12143 c-18 -9 -41 -28 -51 -42 -10 -14 -147 -350 -305 -745
-230 -578 -286 -728 -286 -765 0 -81 59 -141 138 -141 90 0 119 31 188 206
l58 144 326 0 326 0 58 -144 c69 -173 98 -206 186 -206 83 0 140 56 140 140 0
36 -59 194 -289 768 -160 398 -296 734 -305 746 -33 51 -122 70 -184 39z m78
-547 c0 -3 45 -117 99 -255 l99 -251 -208 0 -208 0 101 255 c56 140 105 255
110 255 4 0 7 -2 7 -4z"/>
<path d="M12452 12145 c-245 -68 -384 -266 -352 -497 17 -115 60 -199 139
-271 62 -56 116 -87 242 -137 267 -107 348 -196 295 -325 -42 -99 -126 -155
-241 -163 -58 -4 -81 0 -120 17 -62 27 -80 43 -122 109 -42 66 -83 92 -143 92
-123 0 -183 -129 -114 -247 66 -113 185 -207 309 -245 83 -26 229 -30 315 -9
180 44 323 168 392 339 19 49 23 75 23 182 0 118 -2 128 -29 185 -44 91 -158
199 -272 257 -50 26 -129 61 -177 78 -144 53 -207 113 -207 198 0 79 51 132
148 153 68 14 110 6 191 -37 72 -38 110 -42 161 -16 75 37 104 137 59 208 -23
37 -108 93 -184 120 -68 24 -242 29 -313 9z"/>
<path d="M14000 12142 c-19 -9 -45 -32 -57 -51 l-23 -34 0 -749 c0 -810 -2
-775 54 -827 56 -52 176 -34 217 33 17 29 19 55 19 339 l0 307 303 0 c274 0
306 2 336 18 94 51 93 194 -1 252 -31 19 -51 20 -335 20 l-303 0 0 204 0 205
373 3 c336 3 375 5 405 21 46 25 72 72 72 130 0 60 -21 99 -70 126 -37 20 -49
21 -496 21 -417 0 -462 -2 -494 -18z"/>
<path d="M15835 12153 c-248 -34 -487 -206 -604 -433 -72 -139 -101 -262 -101
-422 0 -165 42 -314 132 -466 43 -72 176 -209 252 -257 265 -168 607 -167 869
5 306 199 450 582 357 946 -82 323 -351 574 -667 623 -69 11 -176 12 -238 4z
m257 -313 c173 -53 315 -208 363 -395 19 -74 19 -213 1 -282 -73 -272 -324
-453 -576 -414 -238 37 -418 231 -452 487 -27 199 65 414 226 529 131 93 291
121 438 75z"/>
<path d="M17647 12145 c-176 -34 -330 -118 -459 -253 -109 -114 -175 -236
-215 -398 -25 -102 -22 -304 6 -408 45 -169 150 -335 280 -443 73 -60 233
-143 326 -168 97 -26 285 -31 385 -11 171 35 335 120 433 225 l47 50 0 308 c0
432 28 403 -390 403 -316 0 -332 -3 -372 -67 -41 -68 -20 -164 45 -203 29 -18
51 -20 230 -20 l197 0 0 -149 0 -150 -57 -34 c-100 -61 -174 -81 -293 -81
-123 -1 -203 22 -297 83 -260 170 -342 499 -188 756 71 118 181 207 314 252
50 17 89 23 161 23 146 0 257 -38 361 -123 82 -67 101 -77 149 -77 54 0 103
27 125 69 19 38 19 113 0 151 -41 79 -267 217 -415 255 -92 23 -277 28 -373
10z"/>
<path d="M19285 12141 c-16 -10 -37 -27 -47 -37 -28 -33 -598 -1470 -598
-1510 0 -42 18 -80 55 -114 23 -21 36 -25 91 -25 58 0 66 3 95 32 22 21 50 76
88 170 l56 138 326 3 327 2 42 -107 c63 -159 87 -201 123 -223 65 -40 162 -18
204 46 41 63 36 76 -275 853 -160 398 -299 732 -309 744 -42 47 -126 60 -178
28z m179 -806 l95 -240 -201 -3 c-110 -1 -203 0 -206 2 -2 3 42 121 99 262 78
197 104 253 111 238 4 -10 50 -127 102 -259z"/>
<path d="M20775 12145 c-310 -59 -558 -275 -657 -575 -27 -84 -32 -112 -36
-235 -3 -118 -1 -154 17 -228 40 -170 123 -312 253 -432 69 -64 207 -155 235
-155 23 0 15 -12 -57 -86 -57 -58 -70 -78 -70 -103 0 -69 53 -121 121 -121 28
0 49 17 154 120 l121 120 80 0 c176 0 384 65 447 139 61 73 35 185 -51 223
-49 22 -105 19 -145 -6 -39 -25 -140 -54 -212 -61 -151 -14 -321 50 -436 164
-176 175 -217 434 -104 649 48 92 102 152 188 209 106 72 166 88 317 88 116 0
130 -2 190 -28 136 -60 186 -60 244 -2 39 38 51 88 37 143 -15 54 -55 87 -152
127 -148 60 -330 79 -484 50z"/>
<path d="M22254 12146 c-17 -8 -40 -26 -52 -40 -11 -15 -152 -355 -312 -757
-315 -786 -309 -768 -265 -835 43 -65 141 -84 206 -40 31 21 44 45 97 173 l61
148 327 0 327 0 60 -148 c72 -177 86 -192 184 -192 52 0 66 4 88 25 32 29 55
78 55 117 0 37 -577 1481 -604 1512 -42 47 -112 63 -172 37z m170 -805 c53
-133 96 -245 96 -247 0 -2 -93 -4 -206 -4 -161 0 -205 3 -201 13 3 6 49 124
103 260 61 155 100 243 105 235 4 -8 51 -123 103 -257z"/>
<path d="M11826 10329 c-31 -37 -33 -49 -5 -49 21 0 99 57 99 72 0 4 -15 8
-34 8 -26 0 -41 -7 -60 -31z"/>
<path d="M6862 10338 c-20 -20 -15 -58 8 -58 11 0 20 7 20 15 0 13 4 14 20 5
12 -6 35 -10 53 -8 27 2 33 8 35 31 2 19 -1 27 -12 27 -8 0 -17 -4 -21 -10 -4
-6 -15 -6 -31 0 -34 13 -58 12 -72 -2z"/>
<path d="M10287 10343 c-2 -5 -7 -20 -11 -35 -5 -23 -3 -28 13 -28 10 0 22 7
25 15 4 12 10 14 25 5 48 -25 91 -8 91 36 0 17 -37 19 -42 3 -3 -9 -9 -9 -25
0 -24 12 -70 15 -76 4z"/>
<path d="M15086 10334 c-11 -28 -6 -54 9 -54 9 0 18 7 21 15 5 11 11 12 24 5
29 -16 77 -12 84 6 11 29 6 44 -14 44 -11 0 -20 -4 -20 -10 0 -6 -9 -6 -26 0
-38 15 -71 12 -78 -6z"/>
<path d="M3921 10270 c-53 -13 -86 -52 -86 -104 0 -53 20 -78 90 -113 65 -33
85 -51 85 -79 0 -27 -44 -64 -74 -64 -11 1 -38 7 -59 14 -37 14 -39 13 -48
-11 -12 -33 -14 -31 29 -42 80 -23 164 -6 196 40 9 13 16 43 16 69 0 57 -19
79 -100 120 -78 39 -95 74 -52 108 19 15 76 16 103 2 16 -9 21 -7 29 16 12 30
1 43 -35 44 -11 0 -29 2 -40 4 -11 3 -35 1 -54 -4z"/>
<path d="M4275 10275 c-5 -2 -22 -6 -37 -9 -72 -16 -128 -103 -128 -201 0
-163 133 -252 270 -182 66 33 95 90 95 187 -1 124 -48 186 -155 203 -19 3 -39
4 -45 2z m79 -76 c38 -30 56 -71 56 -129 0 -67 -21 -115 -62 -140 -113 -71
-221 95 -152 232 30 59 107 77 158 37z"/>
<path d="M5030 10268 c-89 -26 -134 -97 -133 -210 0 -119 71 -198 177 -198 80
0 131 31 167 102 36 70 21 206 -29 261 -38 43 -121 63 -182 45z m109 -64 c31
-22 61 -89 61 -138 0 -80 -59 -156 -120 -156 -118 0 -165 210 -65 288 33 26
91 29 124 6z"/>
<path d="M6576 10269 c-65 -16 -103 -46 -132 -105 -23 -47 -26 -63 -21 -120 6
-85 38 -134 106 -165 42 -20 48 -26 40 -41 -8 -15 -5 -20 17 -28 31 -12 26
-23 -13 -24 -18 -1 -29 -7 -31 -18 -3 -15 4 -18 40 -18 24 0 49 5 56 12 17 17
15 67 -3 74 -27 11 -16 20 38 30 47 8 52 11 49 33 -1 14 -3 26 -5 27 -1 1 -23
-2 -49 -8 -101 -24 -181 41 -181 146 0 62 23 110 66 137 27 17 43 20 99 15 61
-4 68 -3 74 16 7 22 -9 38 -37 38 -9 0 -29 2 -45 4 -16 3 -47 0 -68 -5z"/>
<path d="M7275 10275 c-5 -2 -22 -6 -37 -9 -14 -3 -41 -18 -59 -33 -111 -94
-84 -314 44 -362 71 -27 175 0 215 56 70 99 42 283 -50 326 -35 15 -96 28
-113 22z m70 -67 c63 -29 88 -171 42 -239 -86 -128 -245 -18 -207 143 22 90
91 130 165 96z"/>
<path d="M10010 10271 c-43 -9 -90 -33 -112 -58 -67 -73 -62 -243 8 -305 11
-10 37 -24 57 -33 31 -13 37 -19 32 -36 -5 -15 -2 -22 15 -26 30 -8 19 -29
-13 -25 -22 3 -27 -1 -27 -17 0 -18 6 -21 43 -21 24 0 48 5 55 12 19 19 14 55
-10 72 -12 9 -20 16 -18 17 116 24 115 23 112 49 -5 32 -2 31 -46 19 -114 -31
-209 56 -192 175 14 89 74 132 173 123 35 -4 63 -2 63 3 0 4 3 15 6 23 3 9 -2
17 -13 20 -39 11 -100 15 -133 8z"/>
<path d="M10676 10269 c-55 -13 -91 -42 -116 -94 -31 -65 -26 -185 10 -238 67
-99 232 -101 297 -5 70 104 41 273 -56 322 -38 19 -91 25 -135 15z m109 -71
c100 -78 53 -288 -65 -288 -31 0 -75 28 -94 61 -41 69 -25 184 31 229 34 27
92 26 128 -2z"/>
<path d="M12735 10271 c-74 -18 -119 -69 -137 -154 -17 -81 2 -157 52 -207 88
-88 241 -58 292 58 43 97 7 247 -69 286 -37 18 -101 26 -138 17z m115 -79 c85
-85 46 -262 -61 -278 -45 -7 -95 25 -115 71 -18 45 -18 128 1 165 38 73 123
94 175 42z"/>
<path d="M13881 10270 c-84 -20 -135 -97 -135 -205 0 -88 29 -148 89 -182 67
-38 160 -29 214 20 75 69 83 244 13 320 -37 42 -118 62 -181 47z m119 -78 c37
-38 54 -97 45 -158 -8 -59 -66 -124 -109 -124 -95 0 -156 128 -112 234 32 77
122 102 176 48z"/>
<path d="M14810 10271 c-98 -20 -152 -85 -158 -188 -7 -106 29 -173 111 -208
31 -13 37 -19 32 -36 -5 -15 -2 -22 15 -26 28 -7 20 -28 -11 -28 -14 0 -25 -7
-27 -17 -3 -15 4 -18 40 -18 24 0 49 5 56 12 17 17 15 53 -3 68 -24 20 -18 26
38 36 48 8 52 11 49 34 -2 14 -5 26 -5 26 -1 1 -25 -3 -52 -9 -109 -22 -196
60 -181 171 7 55 27 86 69 113 27 17 43 20 100 15 37 -3 67 -1 67 4 0 4 3 15
6 23 3 9 -2 17 -13 20 -39 11 -100 15 -133 8z"/>
<path d="M15483 10270 c-62 -14 -106 -53 -130 -115 -16 -42 -16 -149 1 -188
40 -95 154 -134 252 -86 131 63 134 308 5 373 -36 19 -90 25 -128 16z m102
-72 c78 -61 72 -219 -9 -269 -49 -30 -83 -25 -126 19 -45 45 -59 103 -40 172
24 91 110 129 175 78z"/>
<path d="M4530 10070 l0 -200 30 0 30 0 0 148 c1 118 3 144 13 130 7 -10 48
-76 92 -148 76 -124 81 -130 112 -130 l33 0 0 200 0 200 -30 0 -30 0 0 -147 0
-148 -38 65 c-21 36 -62 102 -91 148 -49 76 -55 82 -87 82 l-34 0 0 -200z"/>
<path d="M5327 10263 c-4 -3 -7 -93 -7 -200 l0 -193 30 0 30 0 0 86 0 87 36
-6 c44 -7 70 -29 79 -65 25 -104 24 -102 60 -102 l34 0 -13 38 c-7 20 -16 53
-20 73 -3 19 -15 45 -26 57 -19 20 -19 21 -2 34 62 44 54 150 -13 183 -33 15
-175 22 -188 8z m163 -63 c39 -39 20 -93 -38 -110 -71 -19 -72 -18 -72 60 l0
70 45 0 c32 0 51 -6 65 -20z"/>
<path d="M5630 10070 l0 -200 30 0 30 0 0 200 0 200 -30 0 -30 0 0 -200z"/>
<path d="M5760 10245 l0 -25 101 0 100 0 -105 -154 c-58 -85 -106 -164 -106
-175 0 -20 5 -21 145 -21 l145 0 0 25 0 25 -105 0 -105 0 105 154 c58 85 105
163 105 175 0 20 -4 21 -140 21 l-140 0 0 -25z"/>
<path d="M6195 10258 c-17 -45 -125 -374 -125 -380 0 -4 13 -8 29 -8 27 0 31
5 48 58 l20 57 65 3 66 3 19 -58 c18 -53 22 -58 51 -61 18 -2 32 0 32 5 0 5
-28 94 -63 198 l-64 190 -36 3 c-24 2 -39 -1 -42 -10z m85 -210 c0 -4 -22 -8
-48 -8 l-48 0 25 76 25 77 23 -69 c13 -37 23 -72 23 -76z"/>
<path d="M6885 10258 c-2 -7 -33 -97 -69 -200 l-64 -188 33 0 c32 0 34 3 52
58 l20 57 65 3 66 3 19 -58 c18 -53 22 -58 51 -61 18 -2 32 1 32 6 0 8 -54
169 -117 350 -14 38 -18 42 -49 42 -19 0 -37 -6 -39 -12z m85 -215 c0 -2 -22
-3 -49 -3 l-50 0 26 76 26 77 23 -74 c13 -41 24 -75 24 -76z"/>
<path d="M7760 10070 l0 -200 30 0 30 0 0 200 0 200 -30 0 -30 0 0 -200z"/>
<path d="M7900 10070 l0 -200 115 0 115 0 0 25 c0 25 -1 25 -85 25 l-85 0 0
175 0 175 -30 0 -30 0 0 -200z"/>
<path d="M8150 10138 c1 -159 9 -202 49 -241 39 -39 118 -49 176 -21 62 29 75
71 75 247 l0 147 -30 0 -30 0 0 -142 c0 -125 -3 -147 -20 -175 -23 -38 -59
-50 -99 -33 -45 18 -55 51 -59 208 l-4 142 -29 0 -29 0 0 -132z"/>
<path d="M8546 10238 c-3 -18 -8 -78 -11 -133 -3 -55 -8 -130 -12 -167 l-6
-68 32 0 c30 0 31 2 32 43 1 23 4 91 8 151 l6 109 50 -152 c47 -144 51 -151
75 -151 25 0 30 9 83 158 l56 157 1 -75 c0 -41 3 -112 7 -157 l6 -83 30 0 30
0 -6 88 c-4 48 -9 138 -13 200 l-7 112 -37 0 -38 0 -47 -127 c-25 -71 -49
-140 -52 -155 -4 -21 -16 6 -57 125 l-51 152 -37 3 c-35 3 -37 1 -42 -30z"/>
<path d="M9000 10070 l0 -200 30 0 30 0 0 200 0 200 -30 0 -30 0 0 -200z"/>
<path d="M9140 10070 l0 -200 31 0 30 0 -3 150 -3 150 22 -38 c12 -20 53 -86
91 -147 62 -99 72 -110 100 -113 l32 -3 0 200 0 201 -25 0 -25 0 0 -152 -1
-153 -22 41 c-12 23 -53 91 -92 152 -66 105 -72 112 -102 112 l-33 0 0 -200z"/>
<path d="M9558 10070 l-66 -200 32 0 c31 0 34 3 51 60 l18 60 67 0 67 0 18
-60 c18 -58 19 -60 52 -60 23 0 33 4 31 13 -2 6 -31 96 -66 200 l-64 187 -36
0 -37 0 -67 -200z m126 53 c10 -32 21 -64 23 -70 4 -9 -9 -13 -45 -13 l-50 0
22 70 c11 38 24 70 27 70 3 0 13 -26 23 -57z"/>
<path d="M10252 10083 c-35 -104 -66 -194 -69 -200 -3 -9 6 -13 30 -13 33 0
34 2 52 60 l18 60 67 0 67 0 18 -60 c18 -58 19 -60 53 -60 23 0 33 4 30 13 -3
6 -33 96 -68 200 l-63 187 -36 0 -36 0 -63 -187z m121 39 c10 -31 20 -63 23
-69 4 -10 -9 -13 -46 -13 -38 0 -51 3 -47 13 2 6 13 38 23 70 10 31 20 57 23
57 3 0 14 -26 24 -58z"/>
<path d="M11090 10070 l0 -200 115 0 115 0 0 25 c0 25 -1 25 -85 25 l-85 0 0
65 0 65 75 0 c73 0 75 1 75 25 0 24 -2 25 -75 25 l-75 0 0 60 0 60 80 0 c79 0
80 0 80 25 l0 25 -110 0 -110 0 0 -200z"/>
<path d="M11430 10268 c0 -2 29 -91 65 -198 l64 -195 36 -3 c19 -2 35 -2 35 0
0 2 32 91 70 197 39 107 70 195 70 197 0 2 -15 4 -33 4 l-34 0 -53 -159 -54
-158 -33 106 c-18 58 -40 130 -49 159 -15 50 -17 52 -50 52 -19 0 -34 -1 -34
-2z"/>
<path d="M11800 10070 l0 -200 30 0 30 0 0 200 0 200 -30 0 -30 0 0 -200z"/>
<path d="M11947 10263 c-4 -3 -7 -93 -7 -199 0 -216 -5 -204 80 -204 166 0
249 72 250 215 0 94 -36 151 -115 182 -32 12 -197 17 -208 6z m192 -63 c30
-15 43 -30 56 -65 43 -111 -22 -215 -136 -219 l-54 -1 -3 153 -3 152 51 0 c31
0 66 -8 89 -20z"/>
<path d="M12330 10070 l0 -200 115 0 115 0 0 25 c0 25 -1 25 -85 25 l-85 0 0
65 0 65 75 0 c73 0 75 1 75 25 0 24 -2 25 -75 25 l-75 0 0 60 0 60 80 0 c79 0
80 0 80 25 l0 25 -110 0 -110 0 0 -200z"/>
<path d="M13147 10263 c-4 -3 -7 -93 -7 -200 l0 -193 30 0 30 0 0 75 0 75 40
0 c91 0 150 51 150 129 0 86 -47 121 -163 121 -40 0 -77 -3 -80 -7z m157 -64
c56 -44 23 -117 -57 -126 l-47 -6 0 77 0 76 39 0 c24 0 48 -8 65 -21z"/>
<path d="M13457 10263 c-4 -3 -7 -93 -7 -200 l0 -193 30 0 30 0 0 86 0 87 36
-6 c44 -7 70 -29 79 -65 25 -103 24 -102 59 -102 l34 0 -23 80 c-12 44 -28 86
-34 94 -9 11 -7 19 14 40 19 20 25 35 25 71 0 59 -13 83 -55 101 -35 14 -176
20 -188 7z m163 -63 c51 -51 1 -120 -86 -120 -23 0 -24 3 -24 70 l0 70 45 0
c32 0 51 -6 65 -20z"/>
<path d="M14248 10109 c-3 -157 -4 -161 -28 -181 -18 -15 -32 -18 -58 -13 -32
6 -33 5 -30 -22 3 -26 7 -28 51 -31 33 -2 57 2 74 13 44 29 53 70 53 240 l0
155 -29 0 -30 0 -3 -161z"/>
<path d="M14380 10070 l0 -200 120 0 120 0 0 25 c0 25 -1 25 -85 25 l-85 0 0
65 0 65 75 0 c73 0 75 1 75 25 0 24 -2 25 -75 25 l-75 0 0 60 0 60 80 0 c79 0
80 0 80 25 l0 25 -115 0 -115 0 0 -200z"/>
<path d="M15048 10070 l-66 -200 32 0 c31 0 34 3 51 60 l18 60 67 0 67 0 18
-60 c18 -58 19 -60 53 -60 23 0 33 4 30 13 -3 6 -33 96 -67 200 l-63 187 -36
0 -37 0 -67 -200z m126 53 c10 -32 21 -64 23 -70 4 -10 -9 -13 -47 -13 -37 0
-50 3 -46 13 3 6 13 38 23 69 10 32 21 58 24 58 3 0 13 -26 23 -57z"/>
<path d="M15956 10064 c-18 -18 -21 -47 -6 -75 11 -19 62 -19 3661 -19 l3649
0 12 26 c10 21 9 31 -3 52 l-15 27 -3641 3 c-3301 2 -3643 1 -3657 -14z"/>
<path d="M7525 9942 c-10 -7 -48 -142 -42 -149 3 -2 16 1 29 6 20 7 31 25 47
72 11 35 21 67 21 71 0 10 -41 10 -55 0z"/>
</g>
</svg>
